<svg width="92" height="101" viewBox="0 0 92 101" fill="none" xmlns="http://www.w3.org/2000/svg">
<g clip-path="url(#clip0_21_125)">
<path d="M25.1972 53.3782C25.1972 53.3782 8.76088 56.3135 0.484152 72.6535C-0.653745 74.9035 0.283709 77.6505 2.57492 78.6999L15.32 84.5551L25.1972 53.3751V53.3782Z" fill="#D476E2"/>
<path d="M67.8914 54.1097C67.8914 54.1097 84.1612 57.8629 91.6146 74.598C92.6414 76.9005 91.5652 79.5981 89.2247 80.5333L76.2021 85.7464L67.8945 54.1097H67.8914Z" fill="#D476E2"/>
<path d="M80.2942 79.3882C80.2942 95.2436 65.0174 100.083 46.1758 100.083C27.3342 100.083 12.0574 95.2436 12.0574 79.3882C12.0574 63.5328 27.3311 42.6649 46.1758 42.6649C65.0204 42.6649 80.2942 63.5328 80.2942 79.3882Z" fill="#B665C2"/>
<path d="M22.9707 21.4636C28.8924 21.4636 33.6929 16.6588 33.6929 10.7318C33.6929 4.8048 28.8924 0 22.9707 0C17.0491 0 12.2486 4.8048 12.2486 10.7318C12.2486 16.6588 17.0491 21.4636 22.9707 21.4636Z" fill="#B665C2"/>
<path d="M21.0619 19.2352C23.8124 19.2352 26.0421 17.0034 26.0421 14.2504C26.0421 11.4975 23.8124 9.26572 21.0619 9.26572C18.3114 9.26572 16.0817 11.4975 16.0817 14.2504C16.0817 17.0034 18.3114 19.2352 21.0619 19.2352Z" fill="#333399"/>
<path d="M22.9707 2.87354C29.9523 2.87663 32.8911 6.91996 33.5942 12.167C33.6559 11.6979 33.6929 11.2164 33.6929 10.7287C33.6929 4.8057 28.8915 0 22.9707 0C17.05 0 12.2486 4.8057 12.2486 10.7318C12.2486 11.2195 12.2856 11.6979 12.3473 12.1701C13.0504 6.92305 17.5372 2.87354 22.9707 2.87663V2.87354Z" fill="#D476E2"/>
<path d="M69.5443 21.4636C75.4659 21.4636 80.2664 16.6588 80.2664 10.7318C80.2664 4.8048 75.4659 0 69.5443 0C63.6226 0 58.8221 4.8048 58.8221 10.7318C58.8221 16.6588 63.6226 21.4636 69.5443 21.4636Z" fill="#B665C2"/>
<path d="M70.824 18.5932C73.5745 18.5932 75.8043 16.3614 75.8043 13.6084C75.8043 10.8555 73.5745 8.62372 70.824 8.62372C68.0735 8.62372 65.8438 10.8555 65.8438 13.6084C65.8438 16.3614 68.0735 18.5932 70.824 18.5932Z" fill="#333399"/>
<path d="M69.5443 2.87355C74.9747 3.05257 79.4646 6.91997 80.1677 12.167C80.2294 11.6979 80.2664 11.2164 80.2664 10.7287C80.2664 4.80262 75.465 -0.00308228 69.5443 -0.00308228C63.6235 -0.00308228 58.8221 4.80262 58.8221 10.7287C58.8221 11.2164 58.8592 11.6948 58.9208 12.167C59.6239 6.91997 63.1455 2.66367 69.5443 2.87355Z" fill="#D476E2"/>
<path d="M80.2942 34.3622C80.2942 50.3133 65.0174 61.2796 46.1758 61.2796C27.3342 61.2796 12.0574 50.3133 12.0574 34.3622C12.0574 18.4111 27.3311 3.51553 46.1758 3.51553C65.0204 3.51553 80.2942 18.4111 80.2942 34.3622Z" fill="#D476E2"/>
<path d="M31.2813 80.8327C34.6549 88.9502 31.1888 96.9381 24.0592 99.9043C16.9297 102.87 8.82561 99.6975 5.45509 91.583C2.08149 83.4655 4.715 73.4806 11.8477 70.5114C18.9803 67.5422 27.9108 72.7152 31.2844 80.8327H31.2813Z" fill="#D476E2"/>
<path d="M61.4372 80.8327C58.0636 88.9502 61.5297 96.9381 68.6593 99.9043C75.7919 102.873 83.8929 99.6975 87.2634 91.583C90.637 83.4655 88.0035 73.4806 80.8708 70.5114C73.7382 67.5422 64.8077 72.7152 61.4341 80.8327H61.4372Z" fill="#D476E2"/>
<path d="M23.5104 94.5091C17.0561 97.1943 9.72611 94.3239 6.67322 86.978C6.66705 86.9625 6.66088 86.9471 6.65471 86.9317C6.40493 86.3236 5.48906 86.5675 5.59699 87.2156C5.80977 88.4935 6.16748 89.7651 6.6763 90.9874C9.72919 98.3333 17.0592 101.204 23.5135 98.5184C27.769 96.7468 30.5814 92.9998 31.1241 88.5459C31.2012 87.9194 30.3378 87.6817 30.0726 88.2527C28.7959 91.0244 26.5139 93.259 23.5104 94.5091Z" fill="#B665C2"/>
<path d="M86.0453 86.978C82.9924 94.3239 75.6624 97.1943 69.2082 94.5091C66.2046 93.259 63.9226 91.0244 62.646 88.2527C62.3839 87.6817 61.5173 87.9194 61.5944 88.5459C62.1403 92.9998 64.9495 96.7468 69.2051 98.5184C75.6593 101.204 82.9893 98.3333 86.0422 90.9874C86.5511 89.7651 86.9088 88.4965 87.1215 87.2156C87.2295 86.5675 86.3136 86.3236 86.0638 86.9317C86.0577 86.9471 86.0515 86.9625 86.0453 86.978Z" fill="#B665C2"/>
<path d="M29.9523 31.1985C32.1118 31.1985 33.8625 29.4463 33.8625 27.2848C33.8625 25.1233 32.1118 23.3711 29.9523 23.3711C27.7928 23.3711 26.0421 25.1233 26.0421 27.2848C26.0421 29.4463 27.7928 31.1985 29.9523 31.1985Z" fill="#333399"/>
<path d="M46.9498 31.7294C48.176 31.7294 49.1701 30.7344 49.1701 29.5071C49.1701 28.2797 48.176 27.2848 46.9498 27.2848C45.7235 27.2848 44.7295 28.2797 44.7295 29.5071C44.7295 30.7344 45.7235 31.7294 46.9498 31.7294Z" fill="#333399"/>
<path d="M63.9473 31.1985C66.1069 31.1985 67.8575 29.4463 67.8575 27.2848C67.8575 25.1233 66.1069 23.3711 63.9473 23.3711C61.7878 23.3711 60.0372 25.1233 60.0372 27.2848C60.0372 29.4463 61.7878 31.1985 63.9473 31.1985Z" fill="#333399"/>
<path d="M58.1222 34.2665C57.4869 34.0813 56.8239 34.4455 56.6358 35.0813C56.6266 35.1153 55.6459 38.3685 52.9477 38.3685C50.4159 38.3685 48.1463 37.853 48.1463 31.6337C48.1463 30.9701 47.6097 30.4361 46.9498 30.4361C46.2899 30.4361 45.7533 30.9732 45.7533 31.6337C45.7533 37.853 43.4806 38.3685 40.952 38.3685C39.8696 38.3685 38.9352 37.853 38.1797 36.8375C37.5475 35.9887 37.2731 35.106 37.2669 35.0782C37.0788 34.4455 36.4158 34.0813 35.7836 34.2665C35.1484 34.4517 34.7845 35.1184 34.9695 35.7542C35.0065 35.8807 35.355 37.0258 36.2092 38.1987C37.4334 39.8778 39.074 40.7667 40.955 40.7667C43.8568 40.7667 45.8212 39.8068 46.956 37.7542C48.0908 39.8037 50.052 40.7667 52.9569 40.7667C54.838 40.7667 56.4785 39.8778 57.7028 38.1987C58.557 37.0258 58.9054 35.8807 58.9424 35.7542C59.1275 35.1184 58.7636 34.4548 58.1283 34.2696L58.1222 34.2665Z" fill="#333399"/>
</g>
<defs>
<clipPath id="clip0_21_125">
<rect width="92" height="101" fill="white"/>
</clipPath>
</defs>
</svg>
