<svg width="96" height="103" viewBox="0 0 96 103" fill="none" xmlns="http://www.w3.org/2000/svg">
<g clip-path="url(#clip0_28_27)">
<path d="M95.2381 0H0V11.9767H95.2381V0Z" fill="#FEF6A3"/>
<path d="M95.2381 11.9767V83.8372L76.1905 103H0V11.9767H95.2381Z" fill="#E3F2FF"/>
<path d="M95.2381 11.9767V83.8372L80.9524 98.2093H14.2857C9.02381 98.2093 4.7619 93.9216 4.7619 88.6279V11.9767H95.2381Z" fill="white"/>
<path d="M83.3333 38.134H11.9048C10.5952 38.134 9.5238 37.0561 9.5238 35.7386C9.5238 34.4212 10.5952 33.3433 11.9048 33.3433H83.3333C84.6429 33.3433 85.7143 34.4212 85.7143 35.7386C85.7143 37.0561 84.6429 38.134 83.3333 38.134Z" fill="#E0E0E0"/>
<path d="M83.3333 52.506H11.9048C10.5952 52.506 9.5238 51.4281 9.5238 50.1107C9.5238 48.7933 10.5952 47.7153 11.9048 47.7153H83.3333C84.6429 47.7153 85.7143 48.7933 85.7143 50.1107C85.7143 51.4281 84.6429 52.506 83.3333 52.506Z" fill="#E0E0E0"/>
<path d="M47.619 66.8781H11.9048C10.5952 66.8781 9.5238 65.8002 9.5238 64.4828C9.5238 63.1653 10.5952 62.0874 11.9048 62.0874H47.619C48.9286 62.0874 50 63.1653 50 64.4828C50 65.8002 48.9286 66.8781 47.619 66.8781Z" fill="#E0E0E0"/>
<path d="M86.3095 37.7028L44.3571 79.9088L42 75.9805C41.0238 74.3277 41.9048 74.8547 38.0476 73.5851C36.7619 69.7286 37.3095 70.543 35.6429 69.6088L31.7381 67.2614L73.7143 25.0554L86.2857 37.7028H86.3095Z" fill="#FFBAFE"/>
<path d="M44.3572 79.9328L35.2857 82.5916C33.9762 79.8609 31.7857 77.6333 29.0714 76.3398C30.0953 72.8426 29.5 74.9265 31.7143 67.2135L36.9524 70.3753L38 73.5372L41.1429 74.5912C43.1191 77.9446 42.4286 76.723 44.3572 79.9328Z" fill="#F6CCAF"/>
<path d="M42.7619 77.274C35.9762 78.4956 31.4048 74.4954 29.881 73.7049L31.7619 67.2854L37 70.4472L38.0476 73.6091L41.1905 74.663L42.7381 77.274H42.7619Z" fill="#FFDEC7"/>
<path d="M35.3333 82.5916C35.3333 82.7354 35.4762 82.5916 26.5 85.2026C27.7143 81.0107 27.1429 82.9988 29.0952 76.3158C31.8095 77.6333 34 79.837 35.3095 82.5677L35.3333 82.5916Z" fill="#E0E0E0"/>
<path d="M94.6905 29.2712L90.5 33.5349L77.881 20.8395L82.1191 16.6237C83.881 14.923 86.6667 14.923 88.4286 16.6237L94.7381 22.9235C96.4762 24.6961 96.4762 27.5226 94.7381 29.2951L94.6905 29.2712Z" fill="#D39BD3"/>
<path d="M95.7381 24.5763C94.5714 27.9298 89.4286 29.367 86.2857 26.2291L79.3571 19.3065L82.0714 16.5998C83.8333 14.8991 86.619 14.8991 88.3809 16.5998C95.3333 23.5942 95.3095 23.3547 95.7143 24.5763H95.7381Z" fill="#FFBAFE"/>
<path d="M90.5 33.5349L86.3095 37.7507L73.7381 25.0554L77.881 20.8395L90.5 33.5349Z" fill="#DAD7E5"/>
<path d="M89 32.0019C87.5238 33.487 85.119 33.487 83.619 32.0019L75.2381 23.5223L77.881 20.8156L89 32.0019Z" fill="#EDEBF2"/>
<path d="M76.8333 28.1933L36.8333 68.4351L35.6667 69.6088C37.3095 70.4951 36.8809 69.9921 37.5476 72.0281L79 30.3491L76.8571 28.1933H76.8333ZM81.119 32.5049L81.0476 32.433L39.619 74.1121C41.619 74.8068 41.0476 74.3756 42 76.0044L47.9286 70.04C47.9286 70.04 48 70.04 48.0238 70.04L83.1667 34.5888L81.119 32.5288V32.5049Z" fill="white"/>
</g>
<defs>
<clipPath id="clip0_28_27">
<rect width="96" height="103" fill="white"/>
</clipPath>
</defs>
</svg>
