<svg width="105" height="76" viewBox="0 0 105 76" fill="none" xmlns="http://www.w3.org/2000/svg">
<g clip-path="url(#clip0_27_2)">
<path d="M7.90435 27.6976H68.3381C69.2678 27.6976 70.1105 28.0725 70.7206 28.6769C70.7875 28.7432 70.8494 28.8135 70.9063 28.8857C71.4066 29.4703 71.7092 30.2221 71.7092 31.0363V60.4354C71.7092 64.7178 69.9418 68.6094 67.096 71.4297C64.2492 74.25 60.321 76 55.9983 76H20.2441C15.9215 76 11.9933 74.25 9.14651 71.4297C6.29972 68.6094 4.53333 64.7188 4.53333 60.4354V31.0363C4.53333 30.1232 4.91376 29.2893 5.52586 28.6809L5.52187 28.6769L5.54883 28.6512L5.55382 28.6463L5.5638 28.6374C6.16991 28.0567 6.99569 27.6986 7.90435 27.6986V27.6976Z" fill="#FFA000"/>
<path fill-rule="evenodd" clip-rule="evenodd" d="M4.53333 31.0373V60.4364C4.53333 69.0012 11.5989 76 20.2431 76H38.1207V27.6976H7.90435C6.95875 27.6976 6.15194 28.0696 5.52187 28.6769L5.52586 28.6809C4.91276 29.2893 4.53333 30.1242 4.53333 31.0363V31.0373Z" fill="#FFC9BD"/>
<path d="M68.3711 43.0961C67.5493 44.02 67.6402 45.4297 68.5738 46.2428C69.5064 47.057 70.9293 46.9669 71.7501 46.042C73.1111 44.5126 74.8016 43.2237 76.567 42.2255C78.5401 41.1107 80.5731 40.3618 82.3275 40.0443C82.5851 39.9978 84.713 39.9453 85.9821 39.9137C86.4983 39.9008 86.8928 39.8909 86.9726 39.887C88.2118 39.8345 89.1734 38.7958 89.1195 37.5682C89.0655 36.3406 88.0181 35.3879 86.7789 35.4414C86.5932 35.4503 86.2817 35.4572 85.8763 35.4681C84.4783 35.5027 82.1318 35.561 81.5357 35.6689C79.292 36.0745 76.7507 36.9974 74.3493 38.3556C72.1625 39.5922 70.0636 41.1918 68.3711 43.0961Z" fill="#FFFFFE"/>
<path d="M77.6694 33.9338V41.446V41.4519C77.6634 42.2869 78.2395 42.9684 78.9575 42.9764V42.9724L98.899 43.196C99.5171 43.2019 100.467 43.2741 101.128 43.1623C102.109 42.9971 102.992 42.456 103.666 41.6696C105.436 39.6041 105.451 36.2901 103.674 34.2226C102.856 33.272 101.724 32.6794 100.476 32.6675L79.0783 32.4301C79.0423 32.4262 79.0064 32.4252 78.9694 32.4252C78.2515 32.4252 77.6704 33.1018 77.6704 33.9367L77.6694 33.9338Z" fill="#3E2723"/>
<path fill-rule="evenodd" clip-rule="evenodd" d="M101.127 43.1613C100.466 43.2721 99.5161 43.2009 98.898 43.195L78.9575 42.9714V42.9754C78.2395 42.9684 77.6624 42.2859 77.6694 41.4509V37.7077L79.7803 37.7265L105.001 37.9471C104.998 39.2914 104.552 40.6358 103.666 41.6676C102.992 42.454 102.109 42.9951 101.128 43.1603L101.127 43.1613Z" fill="#5B3E39"/>
<path fill-rule="evenodd" clip-rule="evenodd" d="M38.1207 27.6976V76H55.9983C64.6436 76 71.7091 69.0002 71.7091 60.4364V31.0373C71.7091 30.145 71.3257 29.2764 70.7206 28.6769C70.1105 28.0725 69.2678 27.6976 68.3381 27.6976H38.1217H38.1207Z" fill="#FF6D3F"/>
<path fill-rule="evenodd" clip-rule="evenodd" d="M33.1281 27.6976V76H51.0057C59.651 76 66.7165 69.0002 66.7165 60.4364V31.0373C66.7165 30.145 66.3331 29.2764 65.728 28.6769C65.1179 28.0725 64.2751 27.6976 63.3455 27.6976H33.1291H33.1281Z" fill="#FF9578"/>
<path d="M38.1207 29.9105H31.0931C29.8489 29.9105 28.8404 28.9114 28.8404 27.6788C28.8404 25.1404 29.8799 22.8415 31.5584 21.1776C33.2379 19.5137 35.5585 18.4849 38.1207 18.4849C40.6829 18.4849 43.0035 19.5137 44.683 21.1776C46.3625 22.8415 47.401 25.1404 47.401 27.6788C47.401 28.9114 46.3925 29.9105 45.1483 29.9105H38.1207Z" fill="#FF9578"/>
<path d="M2.33455 26.3631C1.04546 26.3631 0 27.3989 0 28.676C0 29.9531 1.04546 30.9888 2.33455 30.9888H74.7057C75.9948 30.9888 77.0403 29.9531 77.0403 28.676C77.0403 27.3989 75.9948 26.3631 74.7057 26.3631H2.33455Z" fill="#FFFFFE"/>
<path fill-rule="evenodd" clip-rule="evenodd" d="M18.2281 0C12.9339 0 8.64221 4.25173 8.64221 9.49666C8.64221 14.7416 12.9339 18.9933 18.2281 18.9933C23.5222 18.9933 27.8139 14.7416 27.8139 9.49666C27.8139 4.25173 23.5222 0 18.2281 0ZM57.8695 6.7268C55.0018 6.7268 52.6772 9.02974 52.6772 11.8708C52.6772 14.7119 55.0018 17.0149 57.8695 17.0149C60.7373 17.0149 63.0619 14.7119 63.0619 11.8708C63.0619 9.02974 60.7373 6.7268 57.8695 6.7268ZM40.0958 0C38.7168 0 37.5995 1.10695 37.5995 2.47309C37.5995 3.83922 38.7168 4.94618 40.0958 4.94618C41.4747 4.94618 42.5921 3.83922 42.5921 2.47309C42.5921 1.10695 41.4737 0 40.0958 0Z" fill="white"/>
</g>
<defs>
<clipPath id="clip0_27_2">
<rect width="105" height="76" fill="white"/>
</clipPath>
</defs>
</svg>
