<svg width="42" height="36" viewBox="0 0 42 36" fill="none" xmlns="http://www.w3.org/2000/svg">
<g clip-path="url(#clip0_3_2)">
<path d="M38.92 22.08C33.74 31.12 23.58 36 21 36C19.25 36 3.35148e-06 27 3.35148e-06 10.8C-0.0799966 5.49 3.77 0.93 9.02 0.12C9.51 0.04 10 0 10.5 0C11.2 0 11.87 0.02 12.5 0.08C15.73 0.24 18.78 1.64 21 4C23.22 1.64 26.27 0.24 29.5 0.08C30.13 0.02 30.8 0 31.5 0C32 0 32.49 0.04 32.98 0.12C38.23 0.93 42.08 5.49 42 10.8C42 12.4 41.82 14 41.47 15.57C40.96 17.86 40.1 20.05 38.92 22.08Z" fill="#F280A0"/>
<path d="M33.97 22C29.87 27.85 22.86 31 21 31C19.67 31 5 24.5 5 12.8C5 7.6 9 5 13 5C16.2 5 18.55 6.67 20.05 9.33C20.47 10.09 21.53 10.09 21.96 9.33C23.45 6.66 25.8 5 29.01 5C33.01 5 37.01 7.6 37.01 12.8C37.01 14.57 36.7 16.33 36.09 18C35.57 19.42 34.86 20.77 33.98 22H33.97Z" fill="#FFBAFE"/>
<path d="M9.50001 13.26C9.35001 9.81 12.11 6.26 15.44 5.37C14.65 5.12 13.82 4.99 12.99 5C8.99001 5 4.99001 7.6 4.99001 12.8C4.99001 24.5 19.66 31 20.99 31C21.95 30.89 22.88 30.62 23.75 30.2C19.29 28.13 9.50001 22.58 9.50001 13.26Z" fill="#FAAAFE"/>
<path d="M32.98 0.12C32.49 0.04 32 0 31.5 0C30.8 0 30.13 0.02 29.5 0.08C27.01 0.2 24.61 1.08 22.62 2.59C23.56 2.33 24.52 2.16 25.5 2.08C26.13 2.02 26.8 2 27.5 2C28 2 28.49 2.04 28.98 2.12C34.23 2.93 38.08 7.49 38 12.8C38 14.4 37.82 16 37.47 17.57C36.96 19.86 36.1 22.05 34.92 24.08C32.12 28.72 28.21 32.59 23.54 35.34C29.94 32.65 35.32 28.01 38.92 22.08C40.1 20.05 40.96 17.86 41.47 15.57C41.82 14 42 12.4 42 10.8C42.08 5.49 38.23 0.93 32.98 0.12Z" fill="#F89BAE"/>
<path d="M33.97 22C29.87 27.85 22.86 31 21 31C19.71 31 5.92 24.9 5.04 13.9C5.01 14.19 5 14.49 5 14.8C5 26.5 19.67 33 21 33C22.86 33 29.87 29.85 33.97 24C34.85 22.77 35.56 21.42 36.08 20C36.69 18.33 37 16.57 37 14.8C37 14.48 36.98 14.16 36.95 13.85C36.85 15.27 36.56 16.67 36.08 18C35.56 19.42 34.85 20.77 33.97 22Z" fill="#F16D8F"/>
<path d="M37.69 24C37.79 23.86 37.88 23.73 37.98 23.59C37.89 23.73 37.79 23.87 37.69 24Z" fill="#98D7DE"/>
<path d="M32.37 24C32.56 23.79 32.74 23.57 32.92 23.35C32.74 23.57 32.55 23.79 32.36 24H32.37Z" fill="#98D7DE"/>
<path d="M30.92 8.57C31.71 8.12 32.86 8.65 33.49 9.76C34.12 10.87 33.98 12.12 33.18 12.57C32.38 13.02 31.37 12.23 30.74 11.12C30.11 10.01 30.13 9.02 30.92 8.57Z" fill="#F6FAFD"/>
<path d="M34.2114 15.5615C34.5979 15.1748 34.5913 14.5416 34.1967 14.1473C33.8022 13.753 33.169 13.7469 32.7825 14.1337C32.396 14.5204 32.4026 15.1536 32.7972 15.5479C33.1917 15.9422 33.8249 15.9483 34.2114 15.5615Z" fill="#F6FAFD"/>
</g>
<defs>
<clipPath id="clip0_3_2">
<rect width="42" height="36" fill="white"/>
</clipPath>
</defs>
</svg>
