<svg width="129" height="79" viewBox="0 0 129 79" fill="none" xmlns="http://www.w3.org/2000/svg">
<path d="M75.7664 4.43193H4.60044C2.05969 4.43193 0 6.47168 0 8.98784C0 11.504 2.05969 13.5437 4.60044 13.5437H75.7664C78.3071 13.5437 80.3668 11.504 80.3668 8.98784C80.3668 6.47168 78.3071 4.43193 75.7664 4.43193Z" fill="#9477FF"/>
<path d="M75.7664 25.011H4.60044C2.05969 25.011 0 27.0507 0 29.5669C0 32.083 2.05969 34.1228 4.60044 34.1228H75.7664C78.3071 34.1228 80.3668 32.083 80.3668 29.5669C80.3668 27.0507 78.3071 25.011 75.7664 25.011Z" fill="#9477FF"/>
<path d="M49.9789 47.5426H4.60044C2.05969 47.5426 0 49.5823 0 52.0985C0 54.6146 2.05969 56.6544 4.60044 56.6544H49.9789C52.5196 56.6544 54.5793 54.6146 54.5793 52.0985C54.5793 49.5823 52.5196 47.5426 49.9789 47.5426Z" fill="#9477FF"/>
<path d="M56.8952 77.6053C53.9534 80.5806 50.8865 78.1322 45.8479 75.7458L50.3545 71.2829L56.8952 77.6053Z" fill="#9477FF"/>
<path d="M125.307 28.978L85.687 73.1424C84.2474 74.785 81.7438 74.971 80.0851 73.5453C80.0226 73.4833 79.96 73.4523 79.8974 73.3903L54.9549 48.6273C53.703 47.3876 53.4214 45.4971 54.2664 43.9474C54.7358 43.0796 51.9505 45.683 99.7074 3.62613C101.272 2.23146 103.651 2.29345 105.153 3.78109L125.182 23.5853C126.653 25.073 126.715 27.4284 125.307 28.978Z" fill="#9477FF"/>
<path d="M125.808 24.5151C125.526 25.042 127.592 22.6555 93.4797 60.6524C87.9404 66.8199 78.3952 67.3778 72.1674 61.8921C71.9484 61.7062 71.7293 61.4892 71.5415 61.3033C53.4527 43.4825 54.5794 44.5983 54.2664 43.9474C54.7359 43.0796 51.9506 45.683 99.7075 3.62613C101.272 2.23146 103.651 2.29345 105.153 3.78109C126.747 25.1659 125.526 23.8333 125.808 24.5151Z" fill="#CFC5FF"/>
<path d="M128.562 15.9922C128.218 15.3103 129.156 16.3331 113.853 1.17772C113.853 1.17772 113.822 1.14672 113.79 1.11573C112.226 -0.402904 109.722 -0.371911 108.189 1.17772L105.309 3.96705L124.963 23.4304L127.748 20.672C129.031 19.4633 129.344 17.5728 128.531 16.0231L128.562 15.9922ZM126.277 11.0333C126.841 10.5065 126.997 9.66967 126.622 8.98784C126.465 8.67791 126.872 9.1428 120.112 2.44841C119.424 1.76657 118.297 1.79757 117.64 2.44841L116.357 3.68811L125.057 12.273L126.277 11.0643V11.0333Z" fill="#E8E8E8"/>
<path d="M54.7671 48.4104C51.8566 51.3546 51.6688 51.3856 51.2933 52.1605C50.4483 53.6791 50.73 55.5696 51.9505 56.8093L53.4214 58.266L49.1339 70.725L57.5524 79.031L70.1645 74.909L71.5728 76.3036C73.1376 77.8223 75.6725 77.8223 77.206 76.3036L80.0226 73.5143L54.7671 48.4413V48.4104Z" fill="#FFD664"/>
<path d="M108.47 26.1887C108.47 29.5049 108.752 28.3272 84.2475 52.6253C81.9003 54.9188 78.1448 54.9188 75.829 52.6253C74.2329 51.0447 73.7009 48.7203 74.3894 46.6128C75.0153 44.7532 74.0138 46.1169 98.2991 22.0667C100.646 19.7732 104.402 19.7732 106.718 22.0667C107.813 23.1824 108.439 24.6701 108.47 26.2197V26.1887Z" fill="#E0C886"/>
<path d="M108.188 24.3291C107.563 26.1887 108.439 24.918 84.2787 48.8752C81.9316 51.1687 78.1448 51.1687 75.8289 48.8442C75.203 48.1934 74.7023 47.4496 74.4207 46.5818C75.0466 44.7222 74.0451 46.0859 98.3304 22.0357C100.678 19.7422 104.464 19.7422 106.78 22.0667C107.406 22.7175 107.907 23.4614 108.188 24.3291Z" fill="#FFEDB3"/>
</svg>
